<svg xmlns="http://www.w3.org/2000/svg" viewBox="0 0 200 160" fill="none">
  <rect width="200" height="160" fill="#FAF8F4"/>
  <path d="M58 36h84l8 8v72l-8 8H58l-8-8V44l8-8z" fill="#FAF8F4" stroke="#0F1419" stroke-width="2" stroke-linejoin="round"/>
  <path d="M58 36h56v16H58z" stroke="#0F1419" stroke-width="2" stroke-linejoin="round"/>
  <path d="M70 68h60M70 80h52M70 92h44M70 104h36" stroke="#0F1419" stroke-width="1.5" stroke-linecap="round"/>
  <circle cx="118" cy="88" r="22" fill="#F5EDD6" stroke="#C9A227" stroke-width="2"/>
  <path d="M118 76l3 6 7-1-5 5 1 7-6-3-6 3 1-7-5-5 7 1 3-6z" fill="#C9A227"/>
  <path d="M118 108v8" stroke="#C9A227" stroke-width="2" stroke-linecap="round"/>
  <path d="M108 116h20" stroke="#C9A227" stroke-width="2" stroke-linecap="round"/>
</svg>
